<svg width="140" height="140" viewBox="0 0 140 140" fill="none" xmlns="http://www.w3.org/2000/svg">
<rect width="140" height="140" rx="70" fill="#289976"/>
<circle cx="69.6499" cy="66.05" r="9.4" stroke="white" stroke-width="6.7"/>
<circle cx="69.7125" cy="65.7125" r="39.3625" stroke="white" stroke-width="6.7"/>
<rect x="98" y="66" width="16" height="31" fill="#289976"/>
<path d="M61 90.5C55.0872 85.0359 48.5 74.5509 48.5 66.5C48.5 53 57.7641 45.1383 69.5001 45.0003C81.3733 44.8607 91 53 91 66.5C91 74.4771 84.0429 85.2926 78 90.5" stroke="white" stroke-width="6.7"/>
<rect x="27" y="87" width="85" height="30" fill="#289976"/>
<circle cx="109.05" cy="65.85" r="3.35" fill="white"/>
<path d="M30.922 107L35.615 94.764H39.396L44.089 107H40.365L39.339 104.397H35.653L34.646 107H30.922ZM36.128 101.832H38.864L37.496 98.241L36.128 101.832ZM49.7921 107V94.764H53.3641V104.264H58.8741V107H49.7921ZM69.8857 107.19C67.859 107.19 66.3073 106.696 65.2307 105.708C64.1667 104.72 63.6347 103.124 63.6347 100.92C63.6347 99.4 63.8753 98.1777 64.3567 97.253C64.838 96.3157 65.541 95.638 66.4657 95.22C67.403 94.7893 68.543 94.574 69.8857 94.574C71.2283 94.574 72.362 94.7893 73.2867 95.22C74.224 95.638 74.9333 96.3157 75.4147 97.253C75.896 98.1777 76.1367 99.4 76.1367 100.92C76.1367 103.124 75.5983 104.72 74.5217 105.708C73.445 106.696 71.8997 107.19 69.8857 107.19ZM69.8857 104.15C70.7977 104.15 71.4563 103.897 71.8617 103.39C72.2797 102.871 72.4887 102.047 72.4887 100.92C72.4887 99.7167 72.2797 98.868 71.8617 98.374C71.4563 97.8673 70.7977 97.614 69.8857 97.614C68.9737 97.614 68.3087 97.8673 67.8907 98.374C67.4853 98.868 67.2827 99.7167 67.2827 100.92C67.2827 102.047 67.4853 102.871 67.8907 103.39C68.3087 103.897 68.9737 104.15 69.8857 104.15ZM81.8368 107V94.764H85.4088V99.324H89.6268V94.764H93.1988V107H89.6268V102.44H85.4088V107H81.8368ZM98.9079 107L103.601 94.764H107.382L112.075 107H108.351L107.325 104.397H103.639L102.632 107H98.9079ZM104.114 101.832H106.85L105.482 98.241L104.114 101.832Z" fill="white"/>
<rect x="45" y="113" width="50" height="3" rx="1.5" fill="white"/>
</svg>
